# xmcd CD database file
#
# Track frame offsets:
#	150
#	19661
#	40683
#	59640
#	80340
#	93019
#	121069
#	139048
#	163310
#	191215
#	214165
#
# Disc length: 3122 seconds
#
# Revision: 1
# Processed by: cddbd v1.5.2PL0 Copyright (c) Steve Scherf et al.
# Submitted via: CDex 1.70beta2
#
DISCID=920c300b
DTITLE=Wayne Alan - Heaven Sent
DYEAR=1999
DGENRE=Country
TTITLE0=One Step at a Time
TTITLE1=For God So Loved the World for Me
TTITLE2=Jesus Is Still In Charge
TTITLE3=Heaven Sent
TTITLE4=The Angels are Rejoicing
TTITLE5=Mama's Little Boy
TTITLE6=Shining Through the Night
TTITLE7=Just Where to Start
TTITLE8=The Visitor
TTITLE9=No More Tears to Cry
TTITLE10=No Matter the Cost
EXTD=YEAR: 1999
EXTT0=
EXTT1=
EXTT2=
EXTT3=
EXTT4=
EXTT5=
EXTT6=
EXTT7=
EXTT8=
EXTT9=
EXTT10=
PLAYORDER=
